<mxfile host="app.diagrams.net" modified="2023-06-13T03:59:39.536Z" agent="Mozilla/5.0 (Windows NT 10.0; Win64; x64) AppleWebKit/537.36 (KHTML, like Gecko) Chrome/114.0.0.0 Safari/537.36" etag="j5XLujMZBusUS-mwMUfe" version="21.2.9" type="github">
  <diagram name="Page-1" id="822b0af5-4adb-64df-f703-e8dfc1f81529">
    <mxGraphModel dx="1030" dy="617" grid="1" gridSize="10" guides="1" tooltips="1" connect="1" arrows="1" fold="1" page="1" pageScale="1" pageWidth="1100" pageHeight="850" background="none" math="0" shadow="0">
      <root>
        <mxCell id="0" />
        <mxCell id="1" parent="0" />
        <mxCell id="4EEvMr6qabhRFX1Lx5LB-3" style="edgeStyle=orthogonalEdgeStyle;rounded=0;orthogonalLoop=1;jettySize=auto;html=1;entryX=0;entryY=0.5;entryDx=0;entryDy=0;" edge="1" parent="1" source="4EEvMr6qabhRFX1Lx5LB-1" target="4EEvMr6qabhRFX1Lx5LB-2">
          <mxGeometry relative="1" as="geometry" />
        </mxCell>
        <mxCell id="4EEvMr6qabhRFX1Lx5LB-1" value="10.244.1.236&lt;br&gt;&lt;br&gt;10.244.2.123" style="rounded=1;whiteSpace=wrap;html=1;" vertex="1" parent="1">
          <mxGeometry x="20" y="70" width="120" height="110" as="geometry" />
        </mxCell>
        <mxCell id="4EEvMr6qabhRFX1Lx5LB-5" style="edgeStyle=orthogonalEdgeStyle;rounded=0;orthogonalLoop=1;jettySize=auto;html=1;" edge="1" parent="1" source="4EEvMr6qabhRFX1Lx5LB-2" target="4EEvMr6qabhRFX1Lx5LB-4">
          <mxGeometry relative="1" as="geometry" />
        </mxCell>
        <mxCell id="4EEvMr6qabhRFX1Lx5LB-2" value="10.244.1.1&lt;br&gt;&lt;br&gt;10.244.2.123" style="rounded=1;whiteSpace=wrap;html=1;" vertex="1" parent="1">
          <mxGeometry x="220" y="70" width="120" height="110" as="geometry" />
        </mxCell>
        <mxCell id="4EEvMr6qabhRFX1Lx5LB-8" style="edgeStyle=orthogonalEdgeStyle;rounded=0;orthogonalLoop=1;jettySize=auto;html=1;entryX=0.5;entryY=0;entryDx=0;entryDy=0;" edge="1" parent="1" source="4EEvMr6qabhRFX1Lx5LB-4" target="4EEvMr6qabhRFX1Lx5LB-6">
          <mxGeometry relative="1" as="geometry" />
        </mxCell>
        <mxCell id="4EEvMr6qabhRFX1Lx5LB-4" value="iptable&lt;br&gt;" style="shape=note;whiteSpace=wrap;html=1;backgroundOutline=1;darkOpacity=0.05;" vertex="1" parent="1">
          <mxGeometry x="410" y="250" width="80" height="100" as="geometry" />
        </mxCell>
        <mxCell id="4EEvMr6qabhRFX1Lx5LB-12" style="edgeStyle=orthogonalEdgeStyle;rounded=0;orthogonalLoop=1;jettySize=auto;html=1;entryX=0;entryY=0.5;entryDx=0;entryDy=0;startArrow=classic;startFill=1;" edge="1" parent="1" source="4EEvMr6qabhRFX1Lx5LB-6" target="4EEvMr6qabhRFX1Lx5LB-9">
          <mxGeometry relative="1" as="geometry">
            <Array as="points">
              <mxPoint x="600" y="465" />
              <mxPoint x="600" y="465" />
            </Array>
          </mxGeometry>
        </mxCell>
        <mxCell id="4EEvMr6qabhRFX1Lx5LB-6" value="flannel0&lt;br&gt;tune设备" style="whiteSpace=wrap;html=1;aspect=fixed;" vertex="1" parent="1">
          <mxGeometry x="410" y="425" width="80" height="80" as="geometry" />
        </mxCell>
        <mxCell id="4EEvMr6qabhRFX1Lx5LB-19" style="edgeStyle=orthogonalEdgeStyle;rounded=0;orthogonalLoop=1;jettySize=auto;html=1;entryX=0;entryY=0.5;entryDx=0;entryDy=0;" edge="1" parent="1" source="4EEvMr6qabhRFX1Lx5LB-9" target="4EEvMr6qabhRFX1Lx5LB-17">
          <mxGeometry relative="1" as="geometry" />
        </mxCell>
        <mxCell id="4EEvMr6qabhRFX1Lx5LB-9" value="flannel0&lt;br&gt;tune设备" style="whiteSpace=wrap;html=1;aspect=fixed;" vertex="1" parent="1">
          <mxGeometry x="700" y="425" width="80" height="80" as="geometry" />
        </mxCell>
        <mxCell id="4EEvMr6qabhRFX1Lx5LB-22" style="edgeStyle=orthogonalEdgeStyle;rounded=0;orthogonalLoop=1;jettySize=auto;html=1;entryX=0.5;entryY=1;entryDx=0;entryDy=0;" edge="1" parent="1" source="4EEvMr6qabhRFX1Lx5LB-10" target="4EEvMr6qabhRFX1Lx5LB-14">
          <mxGeometry relative="1" as="geometry" />
        </mxCell>
        <mxCell id="4EEvMr6qabhRFX1Lx5LB-10" value="iptable&lt;br&gt;" style="shape=note;whiteSpace=wrap;html=1;backgroundOutline=1;darkOpacity=0.05;" vertex="1" parent="1">
          <mxGeometry x="890" y="250" width="80" height="100" as="geometry" />
        </mxCell>
        <mxCell id="4EEvMr6qabhRFX1Lx5LB-14" value="10.244.1.236&lt;br&gt;&lt;br&gt;10.244.2.1" style="rounded=1;whiteSpace=wrap;html=1;" vertex="1" parent="1">
          <mxGeometry x="870" y="100" width="120" height="110" as="geometry" />
        </mxCell>
        <mxCell id="4EEvMr6qabhRFX1Lx5LB-21" style="edgeStyle=orthogonalEdgeStyle;rounded=0;orthogonalLoop=1;jettySize=auto;html=1;" edge="1" parent="1" source="4EEvMr6qabhRFX1Lx5LB-17" target="4EEvMr6qabhRFX1Lx5LB-10">
          <mxGeometry relative="1" as="geometry" />
        </mxCell>
        <mxCell id="4EEvMr6qabhRFX1Lx5LB-17" value="10.244.1.236&lt;br&gt;&lt;br&gt;10.244.2.123" style="rounded=1;whiteSpace=wrap;html=1;" vertex="1" parent="1">
          <mxGeometry x="870" y="410" width="120" height="110" as="geometry" />
        </mxCell>
        <mxCell id="4EEvMr6qabhRFX1Lx5LB-23" value="&lt;ul style=&quot;box-sizing: inherit; margin: 1em 0px 1em 0.625em; padding: 0px; color: rgba(0, 0, 0, 0.87); font-family: &amp;quot;Noto Sans&amp;quot;, sans-serif; font-size: 16px; text-align: start;&quot;&gt;&lt;li style=&quot;box-sizing: inherit; margin-bottom: 0.5em; margin-left: 1.25em;&quot;&gt;UDP 封包解包&lt;/li&gt;&lt;/ul&gt;" style="text;html=1;align=center;verticalAlign=middle;resizable=0;points=[];autosize=1;strokeColor=none;fillColor=none;" vertex="1" parent="1">
          <mxGeometry x="510" y="413" width="160" height="60" as="geometry" />
        </mxCell>
      </root>
    </mxGraphModel>
  </diagram>
</mxfile>
